<svg xmlns="http://www.w3.org/2000/svg" width="800" height="1000" viewBox="0 0 800 1000" role="img" aria-label="Không gian hÍc thu­t Ąm, tông nâu cam">
  <defs>
    <linearGradient id="bg" x1="0%" y1="0%" x2="100%" y2="100%">
      <stop offset="0%" stop-color="#faf9f5"/>
      <stop offset="45%" stop-color="#f4ebe0"/>
      <stop offset="100%" stop-color="#e8d5c4"/>
    </linearGradient>
    <linearGradient id="sun" x1="50%" y1="0%" x2="50%" y2="100%">
      <stop offset="0%" stop-color="#ffb77d" stop-opacity="0.55"/>
      <stop offset="100%" stop-color="#8d4b00" stop-opacity="0"/>
    </linearGradient>
    <linearGradient id="shelf" x1="0%" y1="0%" x2="0%" y2="100%">
      <stop offset="0%" stop-color="#b15f00"/>
      <stop offset="100%" stop-color="#6e3900"/>
    </linearGradient>
    <linearGradient id="book1" x1="0%" y1="0%" x2="100%" y2="0%">
      <stop offset="0%" stop-color="#8d4b00"/>
      <stop offset="100%" stop-color="#b15f00"/>
    </linearGradient>
    <filter id="soft" x="-20%" y="-20%" width="140%" height="140%">
      <feGaussianBlur stdDeviation="24" result="b"/>
      <feMerge><feMergeNode in="b"/><feMergeNode in="SourceGraphic"/></feMerge>
    </filter>
  </defs>
  <rect width="800" height="1000" fill="url(#bg)"/>
  <ellipse cx="620" cy="120" rx="280" ry="160" fill="url(#sun)" filter="url(#soft)"/>
  <path d="M0 720 Q200 680 400 700 T800 660 V1000 H0Z" fill="#dbc2b0" opacity="0.35"/>
  <rect x="80" y="200" width="640" height="16" rx="4" fill="url(#shelf)" opacity="0.9"/>
  <rect x="80" y="360" width="640" height="16" rx="4" fill="url(#shelf)" opacity="0.85"/>
  <rect x="80" y="520" width="640" height="16" rx="4" fill="url(#shelf)" opacity="0.8"/>
  <g transform="translate(120, 220)">
    <rect x="0" y="0" width="48" height="120" rx="4" fill="url(#book1)"/>
    <rect x="56" y="20" width="42" height="100" rx="3" fill="#ffdcc3" opacity="0.95"/>
    <rect x="106" y="8" width="52" height="112" rx="4" fill="#795900" opacity="0.85"/>
    <rect x="168" y="28" width="40" height="92" rx="3" fill="#b15f00"/>
    <rect x="218" y="0" width="55" height="120" rx="4" fill="#6e3900"/>
  </g>
  <g transform="translate(120, 380)">
    <rect x="0" y="10" width="50" height="110" rx="4" fill="#b15f00"/>
    <rect x="58" y="0" width="44" height="120" rx="3" fill="#ffdcc3"/>
    <rect x="112" y="24" width="48" height="96" rx="3" fill="#8d4b00"/>
    <rect x="170" y="6" width="40" height="114" rx="3" fill="#887364" opacity="0.6"/>
  </g>
  <g transform="translate(420, 230)">
    <rect x="0" y="0" width="56" height="130" rx="4" fill="#6e3900"/>
    <rect x="64" y="18" width="46" height="112" rx="3" fill="#ffb77d" opacity="0.9"/>
    <rect x="120" y="8" width="50" height="122" rx="4" fill="#b15f00"/>
    <rect x="180" y="22" width="42" height="108" rx="3" fill="#ffdf9f" opacity="0.95"/>
  </g>
  <circle cx="180" cy="780" r="120" fill="#8d4b00" opacity="0.08"/>
  <circle cx="640" cy="860" r="90" fill="#b15f00" opacity="0.1"/>
  <rect x="500" y="640" width="220" height="140" rx="20" fill="#fff" opacity="0.5" stroke="#dbc2b0" stroke-width="2"/>
  <text x="520" y="700" font-family="Georgia, serif" font-size="22" fill="#6e3900" opacity="0.85">EduExam</text>
  <text x="520" y="730" font-family="system-ui,sans-serif" font-size="13" fill="#554336">Academic Amber</text>
</svg>
